<svg width="22" height="17" viewBox="0 0 22 17" fill="none" xmlns="http://www.w3.org/2000/svg">
<path d="M0 3.06669C0 2.35945 0.289731 1.68117 0.805456 1.18107C1.32118 0.680976 2.02065 0.400024 2.75 0.400024H19.25C19.9793 0.400024 20.6788 0.680976 21.1945 1.18107C21.7103 1.68117 22 2.35945 22 3.06669V13.7334C22 14.4406 21.7103 15.1189 21.1945 15.619C20.6788 16.1191 19.9793 16.4 19.25 16.4H2.75C2.02065 16.4 1.32118 16.1191 0.805456 15.619C0.289731 15.1189 0 14.4406 0 13.7334V3.06669ZM2.75 1.73336C2.38533 1.73336 2.03559 1.87383 1.77773 2.12388C1.51987 2.37393 1.375 2.71307 1.375 3.06669V4.40002H20.625V3.06669C20.625 2.71307 20.4801 2.37393 20.2223 2.12388C19.9644 1.87383 19.6147 1.73336 19.25 1.73336H2.75ZM20.625 7.06669H1.375V13.7334C1.375 14.087 1.51987 14.4261 1.77773 14.6762C2.03559 14.9262 2.38533 15.0667 2.75 15.0667H19.25C19.6147 15.0667 19.9644 14.9262 20.2223 14.6762C20.4801 14.4261 20.625 14.087 20.625 13.7334V7.06669Z" fill="white"/>
</svg>
