<svg width="21" height="21" viewBox="0 0 21 21" fill="none" xmlns="http://www.w3.org/2000/svg">
<path d="M16.8248 1.23182C16.3569 0.763214 15.7227 0.5 15.0614 0.5C14.4001 0.5 13.7659 0.763214 13.298 1.23182L10.4217 4.10954C10.2986 3.5537 9.99028 3.05655 9.54748 2.70017C9.10469 2.3438 8.55394 2.1495 7.98616 2.14936H2.99539C2.33357 2.14936 1.69886 2.413 1.23088 2.88228C0.762906 3.35156 0.5 3.98805 0.5 4.65172V17.9943C0.5 18.8451 0.924216 19.5991 1.57135 20.0496C1.97561 20.3332 2.46969 20.5 3.00038 20.5H16.3091C16.9709 20.5 17.6056 20.2364 18.0736 19.7671C18.5416 19.2978 18.8045 18.6613 18.8045 17.9976V12.9929C18.8044 12.4383 18.6205 11.8994 18.2817 11.4609C17.9429 11.0225 17.4685 10.7093 16.933 10.5706L19.7694 7.72128C20.2372 7.25202 20.5 6.61565 20.5 5.95211C20.5 5.28857 20.2372 4.6522 19.7694 4.18294L16.8248 1.23016V1.23182ZM10.4816 7.85474L13.11 10.4906H10.4816V7.85474ZM8.81796 10.4906H2.16359V4.65172C2.16359 4.43049 2.25123 4.21833 2.40722 4.0619C2.56321 3.90548 2.77478 3.8176 2.99539 3.8176H7.98616C8.20677 3.8176 8.41834 3.90548 8.57433 4.0619C8.73032 4.21833 8.81796 4.43049 8.81796 4.65172V10.4906ZM2.5196 18.6816C2.41064 18.6042 2.32187 18.5017 2.26077 18.3826C2.19967 18.2636 2.16805 18.1315 2.16858 17.9976V12.1588H8.81796V18.8284H2.99539C2.82516 18.8287 2.659 18.7763 2.5196 18.6783V18.6816ZM10.4816 18.8318V12.1588H16.3091C16.5297 12.1588 16.7413 12.2467 16.8973 12.4031C17.0533 12.5595 17.1409 12.7717 17.1409 12.9929V17.9976C17.1409 18.2189 17.0533 18.431 16.8973 18.5875C16.7413 18.7439 16.5297 18.8318 16.3091 18.8318H10.4816Z" fill="white"/>
</svg>
