<svg width="16" height="17" viewBox="0 0 16 17" fill="none" xmlns="http://www.w3.org/2000/svg">
<path d="M13.3359 7.71716C13.7422 7.90987 14.1094 8.15206 14.4375 8.44373C14.7656 8.73539 15.0469 9.06612 15.2812 9.43591C15.5156 9.80571 15.6927 10.2015 15.8125 10.6234C15.9323 11.0453 15.9948 11.4828 16 11.9359C16 12.5765 15.8776 13.1807 15.6328 13.7484C15.388 14.3161 15.0547 14.8109 14.6328 15.2328C14.2109 15.6547 13.7161 15.988 13.1484 16.2328C12.5807 16.4776 11.9766 16.6 11.3359 16.6C10.8828 16.6 10.4453 16.5375 10.0234 16.4125C9.60156 16.2875 9.20833 16.1104 8.84375 15.8812C8.47917 15.6521 8.14844 15.3734 7.85156 15.0453C7.55469 14.7172 7.3099 14.3474 7.11719 13.9359H0V1.93591H2.66406V0.599976H4V1.93591H9.33594V0.599976H10.6641V1.93591H13.3359V7.71716ZM1.33594 4.59998H12V3.26404H1.33594V4.59998ZM6.71094 12.6C6.67969 12.3812 6.66406 12.1599 6.66406 11.9359C6.66406 11.2901 6.78646 10.6833 7.03125 10.1156C7.27604 9.54789 7.60938 9.0531 8.03125 8.63123C8.45312 8.20935 8.94792 7.87602 9.51562 7.63123C10.0833 7.38643 10.6901 7.26404 11.3359 7.26404C11.5599 7.26404 11.7812 7.27966 12 7.31091V5.93591H1.33594V12.6H6.71094ZM11.3359 15.264C11.7943 15.264 12.224 15.1781 12.625 15.0062C13.026 14.8344 13.3802 14.5948 13.6875 14.2875C13.9948 13.9802 14.2318 13.6286 14.3984 13.2328C14.5651 12.837 14.6536 12.4047 14.6641 11.9359C14.6641 11.4776 14.5781 11.0453 14.4062 10.639C14.2344 10.2328 13.9974 9.87862 13.6953 9.57654C13.3932 9.27446 13.0391 9.03748 12.6328 8.8656C12.2266 8.69373 11.7943 8.60518 11.3359 8.59998C10.8724 8.59998 10.4401 8.68591 10.0391 8.85779C9.63802 9.02966 9.28385 9.26925 8.97656 9.57654C8.66927 9.88383 8.43229 10.238 8.26562 10.639C8.09896 11.0401 8.01042 11.4724 8 11.9359C8 12.3995 8.08594 12.8317 8.25781 13.2328C8.42969 13.6338 8.66927 13.9854 8.97656 14.2875C9.28385 14.5896 9.63802 14.8265 10.0391 14.9984C10.4401 15.1703 10.8724 15.2588 11.3359 15.264ZM12 11.264H13.3359V12.6H10.6641V9.93591H12V11.264Z" fill="white"/>
</svg>
