<svg width="14" height="16" viewBox="0 0 14 16" fill="none" xmlns="http://www.w3.org/2000/svg">
<path d="M7.5936 0.212702C7.4361 0.0765021 7.2226 0 7 0C6.7774 0 6.5639 0.0765021 6.4064 0.212702L1.9264 4.09164C1.77802 4.22952 1.69724 4.41187 1.70108 4.60029C1.70492 4.78871 1.79308 4.96849 1.94698 5.10174C2.10089 5.235 2.30852 5.31133 2.52613 5.31465C2.74375 5.31798 2.95436 5.24804 3.1136 5.11957L6.16 2.48188V12.3635C6.16 12.5564 6.2485 12.7414 6.40603 12.8778C6.56356 13.0142 6.77722 13.0908 7 13.0908C7.22278 13.0908 7.43644 13.0142 7.59397 12.8778C7.7515 12.7414 7.84 12.5564 7.84 12.3635V2.48188L10.8864 5.11957C10.9633 5.19102 11.056 5.24834 11.1591 5.28809C11.2621 5.32784 11.3733 5.34921 11.4861 5.35094C11.5989 5.35266 11.711 5.33469 11.8155 5.29812C11.9201 5.26154 12.0152 5.20709 12.0949 5.13803C12.1747 5.06896 12.2376 4.9867 12.2798 4.89614C12.3221 4.80557 12.3428 4.70857 12.3408 4.61092C12.3388 4.51326 12.3141 4.41695 12.2682 4.32774C12.2223 4.23852 12.1561 4.15823 12.0736 4.09164L7.5936 0.212702ZM0.84 14.5454C0.617218 14.5454 0.403561 14.622 0.24603 14.7584C0.0884996 14.8948 0 15.0798 0 15.2727C0 15.4656 0.0884996 15.6506 0.24603 15.787C0.403561 15.9234 0.617218 16 0.84 16H13.16C13.3828 16 13.5964 15.9234 13.754 15.787C13.9115 15.6506 14 15.4656 14 15.2727C14 15.0798 13.9115 14.8948 13.754 14.7584C13.5964 14.622 13.3828 14.5454 13.16 14.5454H0.84Z" fill="white"/>
</svg>
