<?xml version="1.0" standalone="no"?>
<!DOCTYPE svg PUBLIC "-//W3C//DTD SVG 20010904//EN"
 "http://www.w3.org/TR/2001/REC-SVG-20010904/DTD/svg10.dtd">
<svg version="1.0" xmlns="http://www.w3.org/2000/svg"
 width="169.000000pt" height="184.000000pt" viewBox="0 0 169.000000 184.000000"
 preserveAspectRatio="xMidYMid meet">

<g transform="translate(0.000000,184.000000) scale(0.100000,-0.100000)"
fill="#000000" stroke="none">
<path d="M156 1815 c-52 -18 -100 -67 -126 -127 -19 -45 -21 -65 -18 -206 4
-215 4 -215 241 -464 102 -108 193 -211 204 -229 16 -30 19 -67 23 -324 5
-272 6 -292 27 -330 41 -78 120 -124 210 -125 65 0 88 9 196 77 74 47 93 64
119 110 26 45 33 53 52 47 87 -28 166 -31 251 -9 225 59 371 263 351 492 -11
137 -83 264 -191 338 l-55 38 55 58 c31 32 68 84 83 116 26 56 27 64 27 223 0
151 -2 168 -22 207 -27 51 -82 96 -132 112 -60 18 -1243 15 -1295 -4z m1271
-125 c56 -33 65 -67 61 -204 -3 -107 -7 -127 -30 -171 -15 -29 -53 -73 -89
-105 l-63 -55 -96 -6 c-156 -11 -275 -71 -356 -182 -139 -188 -121 -449 42
-611 48 -48 52 -64 28 -102 -21 -32 -171 -124 -202 -124 -31 0 -77 25 -96 52
-14 19 -16 62 -16 273 0 265 -7 321 -51 407 -11 22 -105 130 -209 238 -225
237 -223 234 -218 408 3 104 6 125 24 149 40 54 25 53 654 53 563 0 586 -1
617 -20z m-71 -689 c104 -46 172 -130 200 -244 30 -118 -8 -230 -108 -322
-189 -175 -489 -79 -554 177 -45 175 71 362 253 408 54 13 156 4 209 -19z"/>
<path d="M1185 875 c-20 -19 -25 -34 -25 -75 l0 -50 -55 0 c-82 0 -117 -43
-79 -98 13 -19 24 -22 75 -22 l59 0 0 -51 c0 -77 32 -117 84 -103 30 7 46 42
46 104 l0 50 59 0 c51 0 62 3 75 22 38 55 3 98 -79 98 l-55 0 0 50 c0 41 -5
56 -25 75 -13 14 -31 25 -40 25 -9 0 -27 -11 -40 -25z"/>
</g>
</svg>
