<svg width="16" height="17" viewBox="0 0 16 17" fill="none" xmlns="http://www.w3.org/2000/svg">
<path d="M6.65815 4.72558C6.65791 3.93276 6.86352 3.1532 7.25525 2.46176C7.64697 1.77031 8.21165 1.19021 8.89506 0.777152C9.57846 0.364098 10.3576 0.131968 11.1578 0.103053C11.9579 0.0741376 12.7521 0.249409 13.4641 0.612036C13.5493 0.655589 13.6229 0.71844 13.6789 0.795475C13.7349 0.87251 13.7718 0.961554 13.7865 1.05536C13.8012 1.14917 13.7934 1.2451 13.7636 1.33534C13.7338 1.42558 13.683 1.50758 13.6151 1.57468L11.3695 3.79993L12.2304 4.65239L14.4874 2.41829C14.5548 2.3516 14.6371 2.3015 14.7277 2.27204C14.8182 2.24257 14.9145 2.23456 15.0087 2.24864C15.103 2.26272 15.1926 2.2985 15.2703 2.35311C15.348 2.40772 15.4117 2.47962 15.4563 2.56305C15.8772 3.34939 16.06 4.23929 15.9827 5.12594C15.9055 6.0126 15.5715 6.85836 15.0208 7.56171C14.4702 8.26506 13.7263 8.79613 12.8784 9.09119C12.0304 9.38625 11.1145 9.43276 10.2406 9.22514L4.25902 15.3516C3.80237 15.8195 3.17674 16.0885 2.51975 16.0996C1.86276 16.1107 1.22823 15.8629 0.755756 15.4107C0.283279 14.9586 0.0115544 14.339 0.000359618 13.6885C-0.00518348 13.3664 0.0534019 13.0463 0.172771 12.7466C0.29214 12.4469 0.469954 12.1734 0.696062 11.9418L6.76698 5.72199C6.69451 5.39499 6.65802 5.06117 6.65815 4.72638V4.72558ZM11.3281 1.30768C10.7887 1.30751 10.2568 1.43252 9.775 1.67268C9.29321 1.91283 8.87497 2.26145 8.55383 2.69056C8.23268 3.11968 8.01756 3.61735 7.92572 4.14365C7.83389 4.66996 7.8679 5.21025 8.02501 5.72119C8.05673 5.82414 8.06005 5.93361 8.03463 6.03826C8.00921 6.1429 7.95598 6.2389 7.88045 6.31631L1.57157 12.7789C1.45665 12.8967 1.36628 13.0357 1.30562 13.1881C1.24495 13.3404 1.21518 13.5031 1.21801 13.6668C1.22084 13.8305 1.25621 13.9921 1.3221 14.1423C1.38799 14.2925 1.48311 14.4284 1.60203 14.5422C1.72095 14.656 1.86134 14.7455 2.01519 14.8055C2.16903 14.8656 2.33332 14.8951 2.49867 14.8923C2.66402 14.8895 2.82719 14.8545 2.97888 14.7892C3.13056 14.724 3.26777 14.6298 3.3827 14.512L9.61685 8.12658C9.69644 8.04477 9.79774 7.98687 9.90909 7.95955C10.0204 7.93223 10.1373 7.93661 10.2463 7.97218C10.8304 8.16341 11.4556 8.19656 12.057 8.0682C12.6585 7.93983 13.2143 7.65461 13.6671 7.24207C14.1198 6.82953 14.4529 6.30467 14.632 5.72181C14.8111 5.13896 14.8296 4.5193 14.6856 3.92699L12.6616 5.93189C12.6051 5.98794 12.5379 6.03241 12.464 6.06274C12.3901 6.09308 12.3108 6.10869 12.2308 6.10869C12.1508 6.10869 12.0715 6.09308 11.9976 6.06274C11.9237 6.03241 11.8565 5.98794 11.7999 5.93189L10.0773 4.22536C9.96328 4.11226 9.89921 3.95896 9.89921 3.79912C9.89921 3.63929 9.96328 3.48599 10.0773 3.37289L12.0801 1.3889C11.8332 1.33474 11.581 1.3075 11.3281 1.30768V1.30768Z" fill="white"/>
</svg>
