<svg width="25" height="25" viewBox="0 0 25 25" fill="none" xmlns="http://www.w3.org/2000/svg">
<path fill-rule="evenodd" clip-rule="evenodd" d="M5.50129 20.5C4.79703 20.5 4.32603 19.7979 4.56107 19.1586L4.60686 19.0528L5.76228 16.742C6.19968 15.8672 6.44836 14.9115 6.49372 13.9369L6.50129 13.6115V10.5C6.50129 7.52694 8.66367 5.05893 11.5015 4.58293L11.5013 3.5C11.5013 2.94772 11.949 2.5 12.5013 2.5C13.0536 2.5 13.5013 2.94772 13.5013 3.5L13.5021 4.58309C16.2606 5.04627 18.3807 7.39172 18.4963 10.2535L18.5013 10.5V13.6115C18.5013 14.5895 18.7062 15.5555 19.1015 16.4474L19.2403 16.742L20.3957 19.0528C20.7107 19.6827 20.2933 20.418 19.6164 20.4936L19.5013 20.5H14.5013C14.5013 21.6046 13.6059 22.5 12.5013 22.5C11.3967 22.5 10.5013 21.6046 10.5013 20.5H5.50129ZM12.5013 6.5C10.3591 6.5 8.61021 8.18397 8.50619 10.3004L8.50129 10.5V13.6115C8.50129 14.8922 8.22794 16.1569 7.70109 17.3213L7.55114 17.6364L7.11932 18.5H17.8833L17.4514 17.6364C16.8787 16.4908 16.5576 15.2374 16.5081 13.9603L16.5013 13.6115V10.5C16.5013 8.29086 14.7104 6.5 12.5013 6.5Z" fill="white"/>
</svg>
