<svg width="16" height="17" viewBox="0 0 16 17" fill="none" xmlns="http://www.w3.org/2000/svg">
<path d="M3.2 0.199951C1.432 0.199951 0 1.79106 0 3.75551C0 5.71995 1.432 7.31106 3.2 7.31106C4.968 7.31106 6.4 5.71995 6.4 3.75551C6.4 1.79106 4.968 0.199951 3.2 0.199951ZM3.2 5.53328C2.32 5.53328 1.6 4.73328 1.6 3.75551C1.6 2.77773 2.32 1.97773 3.2 1.97773C4.08 1.97773 4.8 2.77773 4.8 3.75551C4.8 4.73328 4.08 5.53328 3.2 5.53328ZM3.2 9.08884C1.432 9.08884 0 10.68 0 12.6444C0 14.6088 1.432 16.2 3.2 16.2C4.968 16.2 6.4 14.6088 6.4 12.6444C6.4 10.68 4.968 9.08884 3.2 9.08884ZM8 1.97773H16V3.75551H8V1.97773ZM8 14.4222V12.6444H16V14.4222H8ZM8 7.31106H16V9.08884H8V7.31106Z" fill="white"/>
</svg>
