<svg width="18" height="17" viewBox="0 0 18 17" fill="none" xmlns="http://www.w3.org/2000/svg">
<path d="M15.444 4.27373L15.444 4.27374L15.4447 4.27238C15.6038 3.95416 15.5514 3.53068 15.2854 3.26467L14.0854 2.06467C13.8193 1.79866 13.3959 1.74619 13.0776 1.9053L13.0776 1.90528L13.0763 1.906L11.7969 2.59492L11.0904 2.31233L10.6476 0.934723L10.6474 0.934213C10.5413 0.615904 10.2237 0.350024 9.85 0.350024H8.15C7.77742 0.350024 7.45658 0.615435 7.40112 0.988692L6.96166 2.35592C6.67778 2.4069 6.43708 2.50272 6.1988 2.64259L4.92371 1.956L4.92372 1.95598L4.92236 1.9553C4.60414 1.79619 4.18066 1.84866 3.91464 2.11467L2.71464 3.31467C2.44863 3.58068 2.39617 4.00416 2.55528 4.32239L2.55527 4.32239L2.55564 4.32309L3.19509 5.5528C3.14763 5.67274 3.10025 5.80304 3.05317 5.9325L3.05301 5.93294C3.00586 6.06259 2.95902 6.1914 2.91225 6.30964L1.5347 6.75242L1.53419 6.75259C1.21588 6.85869 0.95 7.17636 0.95 7.55002V9.25002C0.95 9.62488 1.21723 9.94232 1.58547 10.0479L2.96231 10.4904L3.2449 11.1969L2.55598 12.4763L2.55596 12.4763L2.55528 12.4777C2.39617 12.7959 2.44863 13.2194 2.71464 13.4854L3.91464 14.6854C4.18066 14.9514 4.60414 15.0039 4.92236 14.8447L4.92237 14.8448L4.92371 14.844L6.20313 14.1551L6.90931 14.4376L7.35225 15.8648L7.35224 15.8648L7.35257 15.8658C7.45867 16.1841 7.77634 16.45 8.15 16.45H9.85C10.2237 16.45 10.5413 16.1841 10.6474 15.8658L10.6478 15.8648L11.0907 14.4376L11.7969 14.1551L13.0763 14.844L13.0763 14.8441L13.0776 14.8447C13.3959 15.0039 13.8193 14.9514 14.0854 14.6854L15.2854 13.4854C15.5514 13.2194 15.6038 12.7959 15.4447 12.4777L15.4447 12.4777L15.444 12.4763L14.7551 11.1969L15.0376 10.4907L16.4648 10.0478L16.4648 10.0478L16.4658 10.0475C16.7841 9.94136 17.05 9.62369 17.05 9.25002V7.55002C17.05 7.17878 16.7864 6.80883 16.4145 6.70218L15.0377 6.25962L14.7551 5.55315L15.444 4.27373ZM14.1854 9.60221L14.1568 9.61093L14.151 9.64022L14.102 9.88511L13.6554 10.9272L13.5071 11.1743L13.4924 11.1988L13.5061 11.224L14.3882 12.8411L13.4411 13.7882L11.8239 12.9061L11.7988 12.8924L11.7743 12.9072L11.5252 13.0566C11.525 13.0567 11.5249 13.0568 11.5248 13.0569C11.1787 13.2546 10.8332 13.4026 10.4882 13.5014L10.2402 13.551L10.2109 13.5569L10.2022 13.5854L9.663 15.35H8.337L7.79782 13.5854L7.78909 13.5569L7.75981 13.551L7.51491 13.502L6.47281 13.0554L6.22572 12.9072L6.20118 12.8924L6.17606 12.9061L4.5589 13.7882L3.61181 12.8411L4.49389 11.224L4.5076 11.1988L4.49287 11.1743L4.34341 10.9252C4.34333 10.9251 4.34324 10.9249 4.34316 10.9248C4.14544 10.5787 3.99737 10.2332 3.89863 9.88823L3.84903 9.64022L3.84317 9.61093L3.81461 9.60221L2.05 9.06302V7.73744L3.71411 7.24799L3.73741 7.24114L3.74642 7.21859L3.84642 6.96859L3.84685 6.96877L3.84851 6.96215C3.94719 6.56741 4.0952 6.22178 4.29315 5.87529L4.44287 5.62575L4.4572 5.60188L4.44445 5.57713L3.61116 3.95957L4.55854 3.0122L6.12549 3.8936L6.15081 3.90785L6.17572 3.8929L6.42526 3.74318C6.77176 3.54522 7.11739 3.39722 7.51213 3.29853L7.51224 3.29898L7.51857 3.29645L7.76857 3.19645L7.79059 3.18764L7.7977 3.16502L8.3367 1.45002H9.6633L10.2023 3.16502L10.2094 3.18764L10.2314 3.19645L10.4814 3.29645L10.4813 3.29669L10.4863 3.2981C10.8319 3.39684 11.178 3.54509 11.5247 3.74318C11.5249 3.74327 11.525 3.74335 11.5252 3.74344L11.7743 3.8929L11.7988 3.90762L11.8239 3.89392L13.4411 3.01183L14.3882 3.95893L13.5061 5.57608L13.4924 5.60121L13.5071 5.62575L13.6566 5.87483C13.6567 5.87498 13.6568 5.87513 13.6568 5.87528C13.8546 6.22136 14.0026 6.56687 14.1014 6.91182L14.151 7.15983L14.1568 7.18912L14.1854 7.19784L15.95 7.73703V9.06302L14.1854 9.60221Z" fill="white" stroke="white" stroke-width="0.1"/>
</svg>
