<svg width="18" height="18" viewBox="0 0 18 18" fill="none" xmlns="http://www.w3.org/2000/svg">
<path d="M10.9519 8.83275L14.1285 4.95005H11.5C11.3276 4.95005 11.1623 4.88157 11.0404 4.75967C10.9185 4.63777 10.85 4.47244 10.85 4.30005C10.85 4.12766 10.9185 3.96233 11.0404 3.84043C11.1623 3.71853 11.3276 3.65005 11.5 3.65005H15.5C15.6724 3.65005 15.8377 3.71853 15.9596 3.84043C16.0815 3.96233 16.15 4.12766 16.15 4.30005V8.30005C16.15 8.47244 16.0815 8.63777 15.9596 8.75967C15.8377 8.88157 15.6724 8.95005 15.5 8.95005C15.3276 8.95005 15.1623 8.88157 15.0404 8.75967C14.9185 8.63777 14.85 8.47244 14.85 8.30005V6.12034L11.5031 10.212L11.503 10.2121C11.4455 10.2823 11.374 10.3397 11.293 10.3805C11.212 10.4214 11.1233 10.4448 11.0327 10.4494C10.9421 10.4539 10.8515 10.4394 10.7668 10.4068C10.6822 10.3743 10.6052 10.3243 10.541 10.2602L10.5409 10.2601L8.07806 7.79724L4.52531 12.6823L4.52199 12.6868L4.52191 12.6868C4.41794 12.819 4.26677 12.9057 4.10017 12.9288C3.93356 12.9519 3.7645 12.9095 3.62851 12.8105C3.49252 12.7116 3.40018 12.5637 3.3709 12.3981C3.34162 12.2325 3.37768 12.062 3.47151 11.9224L3.47461 11.9178L3.47469 11.9178L7.47461 6.41793L10.9519 8.83275ZM10.9519 8.83275L8.46009 6.34L8.46001 6.33993C8.39354 6.27353 8.31347 6.22233 8.22531 6.18985C8.13715 6.15737 8.04299 6.14439 7.94933 6.15181C7.85567 6.15922 7.76473 6.18685 7.68278 6.23279C7.60086 6.27871 7.52987 6.34184 7.47469 6.41782L10.9519 8.83275ZM1 0.650049H0.85V0.800049V16.8V16.95H1H17H17.15V16.8V15.8V15.65H17H2.15V0.800049V0.650049H2H1Z" fill="white" stroke="white" stroke-width="0.3"/>
</svg>
