<svg width="18" height="17" viewBox="0 0 18 17" fill="none" xmlns="http://www.w3.org/2000/svg">
<path d="M6.26666 2.25427C6.25106 1.79709 6.05809 1.36385 5.72847 1.04591C5.39885 0.727966 4.95836 0.550169 4.49989 0.549976H4.49987H3.1491H3.1491L1.00093 14.8268L0.950962 14.8251C0.942812 15.0618 0.982499 15.2976 1.06766 15.5187C1.15281 15.7397 1.2817 15.9413 1.44662 16.1116C1.61154 16.2819 1.80913 16.4173 2.02761 16.5098C2.24609 16.6023 2.48099 16.65 2.71832 16.65H4.93008C5.16739 16.65 5.40231 16.6024 5.62081 16.51C5.83932 16.4176 6.03695 16.2823 6.20193 16.112C6.36691 15.9418 6.49585 15.7402 6.58108 15.5192C6.66631 15.2982 6.70608 15.0624 6.69801 14.8257L6.69801 14.8257L6.26666 2.25427ZM6.26666 2.25427L6.21669 2.25598L6.26666 2.25426L6.26666 2.25427ZM4.4993 1.74283H3.14967C3.00106 1.74275 2.85823 1.80028 2.75134 1.90327C2.64446 2.00627 2.58188 2.14667 2.57683 2.29483L4.4993 1.74283ZM4.4993 1.74283C4.64791 1.74275 4.79074 1.80028 4.89763 1.90327M4.4993 1.74283L4.89763 1.90327M4.89763 1.90327C5.00451 2.00627 5.06709 2.14667 5.07214 2.29483L4.89763 1.90327ZM2.6268 2.29655L2.6268 2.29654C2.63141 2.16138 2.68849 2.03327 2.78604 1.93928C2.88359 1.84528 3.01396 1.79275 3.14964 1.79283H3.14967H4.4993H4.49932C4.635 1.79275 4.76538 1.84528 4.86293 1.93928C4.96048 2.03327 5.01756 2.16138 5.02217 2.29654L5.02217 2.29655L5.45295 14.868C5.45533 14.9379 5.44358 15.0076 5.41839 15.0729C5.39319 15.1382 5.35507 15.1978 5.30628 15.2481C5.2575 15.2985 5.19905 15.3385 5.13442 15.3658C5.06979 15.3931 5.0003 15.4072 4.9301 15.4071H4.93008H2.71889H2.71887C2.64866 15.4072 2.57918 15.3931 2.51455 15.3658C2.44992 15.3385 2.39147 15.2985 2.34269 15.2481C2.2939 15.1978 2.25578 15.1382 2.23058 15.0729C2.20539 15.0076 2.19364 14.9379 2.19602 14.868L2.6268 2.29655ZM7.03966 8.55652L10.6481 4.95705V8.59998C10.6481 8.7229 10.6846 8.84304 10.7531 8.94521C10.8215 9.04738 10.9188 9.127 11.0326 9.174C11.1464 9.22101 11.2716 9.23331 11.3923 9.20935C11.5131 9.1854 11.6241 9.12625 11.7112 9.03938L11.7112 9.03938L15.8037 4.95705V14.6C15.8037 14.814 15.7184 15.0193 15.5667 15.1707C15.4149 15.3221 15.2091 15.4071 14.9944 15.4071H14.758V11.1714C14.758 10.9308 14.6621 10.7 14.4916 10.5299C14.3211 10.3598 14.0898 10.2643 13.8487 10.2643H9.26594C9.02483 10.2643 8.79356 10.3598 8.62303 10.5299C8.4525 10.7 8.35667 10.9308 8.35667 11.1714V15.4071H7.1487H7.11001L7.1003 15.4446C6.9881 15.8774 6.74844 16.2668 6.41223 16.5624L6.31268 16.65H6.44525H6.44582H14.995C15.5399 16.65 16.0626 16.434 16.448 16.0496C16.8334 15.6651 17.0499 15.1437 17.0499 14.6V3.45712C17.0499 3.33419 17.0133 3.21405 16.9449 3.11188C16.8764 3.00971 16.7791 2.9301 16.6654 2.88309C16.5516 2.83608 16.4264 2.82378 16.3056 2.84774C16.1848 2.8717 16.0739 2.93084 15.9868 3.01771L16.0221 3.05312L15.9868 3.01772L11.8937 7.10006V3.45712C11.8937 3.33419 11.8572 3.21405 11.7887 3.11188C11.7202 3.00971 11.623 2.9301 11.5092 2.88309C11.3954 2.83608 11.2702 2.82378 11.1494 2.84774C11.0287 2.8717 10.9177 2.93084 10.8306 3.01771L10.8659 3.05312L10.8306 3.01772L6.91519 6.92286L6.89978 6.93823L6.90053 6.95998L6.95438 8.52284L6.95833 8.63764L7.03966 8.55652ZM9.60293 15.4071V11.5071H13.5128V15.4071H9.60293Z" fill="white" stroke="white" stroke-width="0.1"/>
</svg>
