<svg width="20" height="16" viewBox="0 0 20 16" fill="none" xmlns="http://www.w3.org/2000/svg">
<path d="M4.60714 5.59937L4.79857 5.52258L6.42 2.11816C6.72454 1.47838 7.17863 0.943332 7.73373 0.570238C8.28882 0.197145 8.92403 3.86486e-05 9.57143 0H13.6557C14.4052 0.000301505 15.1356 0.264664 15.7436 0.755647C16.3515 1.24663 16.806 1.93935 17.0429 2.73569L17.8157 5.3322C18.4632 5.63783 19.0158 6.15056 19.4043 6.80621C19.7929 7.46186 20.0001 8.23129 20 9.01818V10.7988C20 11.9347 19.3971 12.9105 18.5286 13.3505C18.4163 14.071 18.0869 14.7267 17.5954 15.2083C17.1039 15.69 16.4798 15.9685 15.8272 15.9975C15.1746 16.0265 14.5328 15.8042 14.0088 15.3677C13.4847 14.9312 13.1101 14.3068 12.9471 13.5985H7.05286C6.88995 14.3068 6.51526 14.9312 5.99121 15.3677C5.46715 15.8042 4.82537 16.0265 4.17276 15.9975C3.52015 15.9685 2.89611 15.69 2.40459 15.2083C1.91306 14.7267 1.58372 14.071 1.47143 13.3505C1.03292 13.1288 0.660839 12.7702 0.399839 12.3175C0.138839 11.8649 6.46371e-06 11.3376 0 10.7988V10.2564C0 8.56543 0.951429 7.0568 2.37429 6.48887L4.53143 5.62976V5.59937H4.60714ZM13.6557 1.59982H12.1429V5.59937H16.39L15.6871 3.24123C15.5452 2.76384 15.2728 2.34851 14.9085 2.05395C14.5442 1.7594 14.1065 1.60054 13.6571 1.59982H13.6557ZM10.7143 1.59982H9.57143C9.18295 1.59966 8.80175 1.71778 8.46858 1.94152C8.13542 2.16527 7.86284 2.48623 7.68 2.87008L6.38 5.59937H10.7143V1.59982ZM4.85286 7.19919L2.85286 7.9959C2.43615 8.162 2.07555 8.46844 1.82054 8.87318C1.56554 9.27791 1.42862 9.7611 1.42857 10.2564V10.7988C1.42857 11.0787 1.51429 11.3363 1.65714 11.5411C1.89115 10.926 2.29132 10.4085 2.80147 10.0612C3.31161 9.71385 3.90609 9.55422 4.5014 9.6047C5.09671 9.65518 5.66295 9.91323 6.12058 10.3426C6.5782 10.772 6.90423 11.3511 7.05286 11.9986H12.9471C13.0961 11.3516 13.4222 10.7731 13.8797 10.3442C14.3372 9.91528 14.9031 9.65751 15.498 9.60705C16.0929 9.55658 16.6871 9.71596 17.197 10.0628C17.7069 10.4097 18.1071 10.9266 18.3414 11.5411C18.4907 11.3298 18.5718 11.0682 18.5714 10.7988V9.01818C18.5717 8.67299 18.5055 8.33179 18.3773 8.01788C18.2491 7.70396 18.0619 7.42471 17.8286 7.19919H4.85143H4.85286ZM17.1429 12.7986C17.1429 12.3743 16.9923 11.9673 16.7244 11.6673C16.4565 11.3673 16.0932 11.1987 15.7143 11.1987C15.3354 11.1987 14.972 11.3673 14.7041 11.6673C14.4362 11.9673 14.2857 12.3743 14.2857 12.7986C14.2857 13.2229 14.4362 13.6298 14.7041 13.9298C14.972 14.2298 15.3354 14.3984 15.7143 14.3984C16.0932 14.3984 16.4565 14.2298 16.7244 13.9298C16.9923 13.6298 17.1429 13.2229 17.1429 12.7986ZM4.28571 11.1987C3.90683 11.1987 3.54347 11.3673 3.27556 11.6673C3.00765 11.9673 2.85714 12.3743 2.85714 12.7986C2.85714 13.2229 3.00765 13.6298 3.27556 13.9298C3.54347 14.2298 3.90683 14.3984 4.28571 14.3984C4.6646 14.3984 5.02796 14.2298 5.29587 13.9298C5.56378 13.6298 5.71429 13.2229 5.71429 12.7986C5.71429 12.3743 5.56378 11.9673 5.29587 11.6673C5.02796 11.3673 4.6646 11.1987 4.28571 11.1987Z" fill="white"/>
</svg>
